<svg width="153" height="27" viewBox="0 0 153 27" fill="none" xmlns="http://www.w3.org/2000/svg">
<path d="M50.1407 8.99475V22.1835C50.1407 24.6766 48.0999 26.6985 45.5835 26.6985H45.3523V24.5382H45.2808C43.887 26.1679 41.9926 27 39.9735 27C36.1132 27 33.3972 25.0523 33.3972 19.6526V8.99475H38.1856V18.4134C38.1856 21.6711 39.1502 22.7339 41.3839 22.7339C43.4746 22.7339 45.3507 21.0169 45.3507 17.583V8.99475H50.139H50.1407Z" fill="#00226D"/>
<path d="M70.9058 8.99478V22.1836C70.9058 24.6767 68.8651 26.6985 66.3486 26.6985V24.5564H66.2588C65.0264 26.1316 63.2218 27 60.9166 27C55.9669 27 52.3561 23.3716 52.3561 17.901C52.3561 12.4304 55.9835 8.69489 60.7719 8.69489C62.8808 8.69489 64.722 9.47428 66.0443 10.9968H66.1158V8.99643H70.9058V8.99478ZM61.7914 22.7504C64.2763 22.7504 66.3137 20.8209 66.3137 17.9175C66.3137 15.0141 64.401 12.961 61.8097 12.961C59.2185 12.961 57.2176 14.8905 57.2176 17.9175C57.2176 20.7863 59.112 22.7504 61.7931 22.7504H61.7914Z" fill="#00226D"/>
<path d="M84.8086 8.69324C88.6689 8.69324 91.4015 10.659 91.4015 16.0588V22.2017C91.4015 24.6948 89.3608 26.7166 86.8443 26.7166H86.5948V17.2633C86.5948 14.0238 85.3973 12.961 83.1104 12.961C80.5541 12.961 78.9291 14.5544 78.9291 17.723V26.6985H74.1407V0.0012207H78.9291V11.1369H79.0006C80.4659 9.50724 82.5383 8.69324 84.8086 8.69324V8.69324Z" fill="#00226D"/>
<path d="M112.042 8.99478V22.1836C112.042 24.6767 110.001 26.6985 107.485 26.6985V24.5564H107.395C106.162 26.1316 104.358 27 102.053 27C97.103 27 93.4922 23.3716 93.4922 17.901C93.4922 12.4304 97.1196 8.69489 101.908 8.69489C104.017 8.69489 105.858 9.47428 107.18 10.9968H107.252V8.99643H112.04L112.042 8.99478ZM102.928 22.7504C105.412 22.7504 107.45 20.8209 107.45 17.9175C107.45 15.0141 105.537 12.961 102.946 12.961C100.355 12.961 98.3537 14.8905 98.3537 17.9175C98.3537 20.7863 100.248 22.7504 102.929 22.7504H102.928Z" fill="#00226D"/>
<path d="M125.855 8.69324C129.679 8.69324 132.341 10.7464 132.341 16.2005V22.2017C132.341 24.6948 130.301 26.7166 127.784 26.7166H127.553V17.3869C127.553 14.0057 126.337 12.961 124.122 12.961C121.692 12.961 120.065 14.6434 120.065 17.7939V26.6985H115.277V8.99478H120.065V11.2786H120.118C121.584 9.57974 123.656 8.69324 125.855 8.69324V8.69324Z" fill="#00226D"/>
<path d="M153 8.99478V22.1836C153 24.6767 150.959 26.6985 148.443 26.6985V24.5564H148.353C147.121 26.1316 145.316 27 143.011 27C138.061 27 134.45 23.3716 134.45 17.901C134.45 12.4304 138.078 8.69489 142.866 8.69489C144.975 8.69489 146.816 9.47428 148.138 10.9968H148.21V8.99643H152.998L153 8.99478ZM143.886 22.7504C146.37 22.7504 148.408 20.8209 148.408 17.9175C148.408 15.0141 146.495 12.961 143.904 12.961C141.313 12.961 139.312 14.8905 139.312 17.9175C139.312 20.7863 141.206 22.7504 143.887 22.7504H143.886Z" fill="#00226D"/>
<path d="M8.75345 26.9983C3.94014 27.0791 0 23.0503 0 18.28V12.61C0 10.425 1.78795 8.65366 3.99336 8.65366V18.3409C3.99336 20.7994 5.89607 22.9168 8.37424 23.0371C11.0237 23.1673 13.2192 21.0696 13.2192 18.4728V8.90577C15.4246 8.90577 17.2125 10.6771 17.2125 12.8621V18.4744C17.2125 23.1261 13.4321 26.9209 8.75512 27L8.75345 26.9983Z" fill="#00226D"/>
<path d="M14.8425 0.00119296C19.6558 -0.079548 23.5959 3.94926 23.5959 8.71957V14.3896C23.5959 16.5745 21.808 18.3459 19.6026 18.3459V8.66025C19.6026 6.20177 17.6998 4.08438 15.2217 3.96409C12.5722 3.83392 10.3767 5.93154 10.3767 8.52843V18.0954C8.17134 18.0954 6.38339 16.3241 6.38339 14.1391V8.52678C6.38339 3.87511 10.1639 0.0802862 14.8425 0.00119296Z" fill="#DA0025"/>
</svg>
