<svg width="24" height="27" viewBox="0 0 24 27" fill="none" xmlns="http://www.w3.org/2000/svg">
<g clip-path="url(#clip0_215_1735)">
<path d="M8.75345 26.9984C3.94014 27.0791 0 23.0503 0 18.28V12.61C0 10.425 1.78795 8.65369 3.99336 8.65369V18.341C3.99336 20.7994 5.89607 22.9168 8.37424 23.0371C11.0237 23.1673 13.2192 21.0697 13.2192 18.4728V8.9058C15.4246 8.9058 17.2125 10.6772 17.2125 12.8621V18.4744C17.2125 23.1261 13.4321 26.9209 8.75512 27L8.75345 26.9984Z" fill="#00226D"/>
<path d="M14.8424 0.00119296C19.6557 -0.079548 23.5958 3.94926 23.5958 8.71957V14.3896C23.5958 16.5745 21.8079 18.3459 19.6025 18.3459V8.66025C19.6025 6.20177 17.6998 4.08438 15.2216 3.96409C12.5721 3.83392 10.3767 5.93154 10.3767 8.52843V18.0954C8.17125 18.0954 6.3833 16.3241 6.3833 14.1391V8.52678C6.3833 3.87511 10.1638 0.0802862 14.8424 0.00119296Z" fill="#DA0025"/>
</g>
<defs>
<clipPath id="clip0_215_1735">
<rect width="24" height="27" fill="white"/>
</clipPath>
</defs>
</svg>
