<svg width="197" height="35" viewBox="0 0 197 35" fill="none" xmlns="http://www.w3.org/2000/svg">
<path d="M64.394 11.66V28.7566C64.394 31.9884 61.7731 34.6092 58.5414 34.6092H58.2444V31.8089H58.1526C56.3626 33.9214 53.9297 35.0001 51.3366 35.0001C46.379 35.0001 42.8909 32.4754 42.8909 25.4757V11.66H49.0404V23.8694C49.0404 28.0923 50.2793 29.47 53.148 29.47C55.8329 29.47 58.2423 27.2443 58.2423 22.7929V11.66H64.3919H64.394Z" fill="white"/>
<path d="M91.0621 11.66V28.7565C91.0621 31.9883 88.4412 34.6092 85.2094 34.6092V31.8324H85.0941C83.5113 33.8744 81.1937 35.0001 78.2332 35.0001C71.8765 35.0001 67.2393 30.2966 67.2393 23.2051C67.2393 16.1136 71.8979 11.2712 78.0474 11.2712C80.7559 11.2712 83.1204 12.2816 84.8186 14.2552H84.9104V11.6621H91.0621V11.66ZM79.3568 29.4913C82.548 29.4913 85.1646 26.9901 85.1646 23.2264C85.1646 19.4628 82.7082 16.8013 79.3803 16.8013C76.0524 16.8013 73.4828 19.3026 73.4828 23.2264C73.4828 26.9452 75.9157 29.4913 79.3589 29.4913H79.3568Z" fill="white"/>
<path d="M108.917 11.2694C113.875 11.2694 117.384 13.8176 117.384 20.8173V28.7803C117.384 32.0121 114.763 34.6329 111.531 34.6329H111.211V22.3787C111.211 18.1793 109.673 16.8016 106.736 16.8016C103.453 16.8016 101.366 18.8671 101.366 22.9746V34.6094H95.2166V0.00195312H101.366V14.437H101.458C103.34 12.3245 106.001 11.2694 108.917 11.2694Z" fill="white"/>
<path d="M143.892 11.66V28.7565C143.892 31.9883 141.271 34.6092 138.039 34.6092V31.8324H137.924C136.341 33.8744 134.023 35.0001 131.063 35.0001C124.706 35.0001 120.069 30.2966 120.069 23.2051C120.069 16.1136 124.727 11.2712 130.877 11.2712C133.585 11.2712 135.95 12.2816 137.648 14.2552H137.74V11.6621H143.89L143.892 11.66ZM132.186 29.4913C135.378 29.4913 137.994 26.9901 137.994 23.2264C137.994 19.4628 135.538 16.8013 132.21 16.8013C128.882 16.8013 126.312 19.3026 126.312 23.2264C126.312 26.9452 128.745 29.4913 132.189 29.4913H132.186Z" fill="white"/>
<path d="M161.631 11.2694C166.542 11.2694 169.962 13.9309 169.962 21.001V28.7803C169.962 32.0121 167.341 34.633 164.109 34.633H163.812V22.539C163.812 18.1559 162.251 16.8017 159.406 16.8017C156.285 16.8017 154.196 18.9825 154.196 23.0665V34.6095H148.046V11.6603H154.196V14.6208H154.264C156.146 12.4186 158.808 11.2694 161.631 11.2694Z" fill="white"/>
<path d="M196.493 11.66V28.7565C196.493 31.9883 193.872 34.6092 190.64 34.6092V31.8324H190.525C188.942 33.8744 186.624 35.0001 183.664 35.0001C177.307 35.0001 172.67 30.2966 172.67 23.2051C172.67 16.1136 177.329 11.2712 183.478 11.2712C186.187 11.2712 188.551 12.2816 190.249 14.2552H190.341V11.6621H196.491L196.493 11.66ZM184.787 29.4913C187.979 29.4913 190.595 26.9901 190.595 23.2264C190.595 19.4628 188.139 16.8013 184.811 16.8013C181.483 16.8013 178.913 19.3026 178.913 23.2264C178.913 26.9452 181.346 29.4913 184.79 29.4913H184.787Z" fill="white"/>
<path d="M11.2418 34.9978C5.06019 35.1024 0 29.8799 0 23.6962V16.3462C0 13.5139 2.2962 11.2177 5.12854 11.2177V23.7752C5.12854 26.9621 7.57214 29.7069 10.7548 29.8628C14.1574 30.0316 16.9769 27.3124 16.9769 23.9461V11.5445C19.8093 11.5445 22.1055 13.8407 22.1055 16.673V23.9482C22.1055 29.9781 17.2503 34.8974 11.2439 34.9999L11.2418 34.9978Z" fill="white"/>
<path d="M19.0617 0.00154643C25.2433 -0.103118 30.3035 5.1194 30.3035 11.3031V18.6531C30.3035 21.4854 28.0073 23.7816 25.1749 23.7816V11.2262C25.1749 8.03932 22.7314 5.29456 19.5487 5.13863C16.1461 4.96988 13.3265 7.68901 13.3265 11.0554V23.457C10.4942 23.457 8.198 21.1608 8.198 18.3284V11.0532C8.198 5.02328 13.0531 0.104074 19.0596 0.00154643H19.0617Z" fill="#DA0025"/>
</svg>
